<svg xmlns="http://www.w3.org/2000/svg" viewBox="0 0 28 24"><defs><style>.cls-1{fill:#fff;}</style></defs><title>Asset 2</title><g id="Layer_2" data-name="Layer 2"><g id="Layer_1-2" data-name="Layer 1"><path id="browser" class="cls-1" d="M2,0H26a2,2,0,0,1,2,2V22a2,2,0,0,1-2,2H2a2,2,0,0,1-2-2V2A2,2,0,0,1,2,0ZM2,5H26V22H2ZM12,2H26V3H12ZM3.5,1.5a.9.9,0,0,1,1,1,.9.9,0,0,1-1,1,.9.9,0,0,1-1-1A.9.9,0,0,1,3.5,1.5Zm3,0a.9.9,0,0,1,1,1,.9.9,0,0,1-1,1,.9.9,0,0,1-1-1A.9.9,0,0,1,6.5,1.5Zm3.1,0a1,1,0,0,1,0,2,.9.9,0,0,1-1-1A.9.9,0,0,1,9.6,1.5Z"/></g></g></svg>